# xmcd
#
# Track frame offsets: 
#        150
#        14251
#        26616
#        38409
#        49946
#        64186
#        76491
#        88935
#        101973
#        113624
#        126594
#        137989
#        151031
#        163984
#        178033
#        193296
#        207663
#        221942
#        236732
#        250372
#        264971
#        274404
#        287089
#        299983
#        312951
#
# Disc length: 4345 seconds
#
# Revision: 2
# Processed by: cddbd v1.5.2PL0 Copyright (c) Steve Scherf et al.
# Submitted via: ExactAudioCopy v0.95a5
#
DISCID=9410f719
DTITLE=Lightnin' Hopkins - Collected Works, Vol. 2, Disc D
DYEAR=1900
DGENRE=Blues
TTITLE0=SOLDIER BOY HOUSTON - Dallas Bebop Blues
TTITLE1=SOLDIER BOY HOUSTON - Western Rider Blues
TTITLE2=SOLDIER BOY HOUSTON - Hug Me Baby
TTITLE3=SOLDIER BOY HOUSTON - Out in California Blues
TTITLE4=SOLDIER BOY HOUSTON - In the Army Since 1941
TTITLE5=SOLDIER BOY HOUSTON - Lawyer Houston Blues
TTITLE6=SOLDIER BOY HOUSTON - Going to the West Coast
TTITLE7=SOLDIER BOY HOUSTON - Lawton, Oklahoma Blues
TTITLE8=J.D. EDWORDS - Cryin'
TTITLE9=J.D. EDWARDS - Playboy Blues
TTITLE10=J.D. EDWARDS - Hobo
TTITLE11=J.D. EDWARDS - Cold in the Evening
TTITLE12=J.D. EDWARDS - West Coast Blues
TTITLE13=ERNEST LEWIS - Rosa Lee
TTITLE14=ERNEST LEWIS - Shake 'em on Down
TTITLE15=ERNEST LEWIS - Loudella
TTITLE16=ERNEST LEWIS - Little Mae Belle
TTITLE17=ERNEST LEWIS - No More Lovin'
TTITLE18=ERNEST LEWIS - West Coast Blues
TTITLE19=ERNEST LEWIS - What Wrong Have I Done
TTITLE20=ERNEST LEWIS - In My Girlish Days
TTITLE21=FRANKIE LEE SIMS - Home Again Blues
TTITLE22=FRANKIE LEE SIMS - Cross Country Blues
TTITLE23=FRANKIE LEE SIMS - Don't Forget Me Baby
TTITLE24=FRANKIE LEE SIMS - Single Man Blues
EXTD=
EXTT0=
EXTT1=
EXTT2=
EXTT3=
EXTT4=
EXTT5=
EXTT6=
EXTT7=
EXTT8=
EXTT9=
EXTT10=
EXTT11=
EXTT12=
EXTT13=
EXTT14=
EXTT15=
EXTT16=
EXTT17=
EXTT18=
EXTT19=
EXTT20=
EXTT21=
EXTT22=
EXTT23=
EXTT24=
PLAYORDER=
